<svg id="visual" viewBox="0 0 900 675" width="900" height="675" xmlns="http://www.w3.org/2000/svg" xmlns:xlink="http://www.w3.org/1999/xlink" version="1.1"><g stroke-width="1" stroke-linejoin="bevel"><path d="M411 302.3L303 320.3L367 361.7Z" fill="#25739b" stroke="#25739b"></path><path d="M411 302.3L360 222.9L303 320.3Z" fill="#143951" stroke="#143951"></path><path d="M303 320.3L328 423.7L367 361.7Z" fill="#1c4f6d" stroke="#1c4f6d"></path><path d="M367 361.7L515 356.7L411 302.3Z" fill="#2780aa" stroke="#2780aa"></path><path d="M360 222.9L310 182.9L303 320.3Z" fill="#1c4f6d" stroke="#1c4f6d"></path><path d="M328 423.7L377 451.1L367 361.7Z" fill="#18445f" stroke="#18445f"></path><path d="M377 451.1L515 356.7L367 361.7Z" fill="#0c2435" stroke="#0c2435"></path><path d="M411 302.3L525 218.9L360 222.9Z" fill="#1c4f6d" stroke="#1c4f6d"></path><path d="M515 356.7L525 276.3L411 302.3Z" fill="#22678b" stroke="#22678b"></path><path d="M360 222.9L437 132.4L310 182.9Z" fill="#18445f" stroke="#18445f"></path><path d="M310 182.9L175 289.3L303 320.3Z" fill="#143951" stroke="#143951"></path><path d="M224 469.1L282 482.1L328 423.7Z" fill="#0c2435" stroke="#0c2435"></path><path d="M168 379.7L328 423.7L303 320.3Z" fill="#22678b" stroke="#22678b"></path><path d="M328 423.7L282 482.1L377 451.1Z" fill="#18445f" stroke="#18445f"></path><path d="M525 276.3L525 218.9L411 302.3Z" fill="#143951" stroke="#143951"></path><path d="M525 218.9L437 132.4L360 222.9Z" fill="#0c2435" stroke="#0c2435"></path><path d="M175 289.3L168 379.7L303 320.3Z" fill="#0c2435" stroke="#0c2435"></path><path d="M168 379.7L224 469.1L328 423.7Z" fill="#18445f" stroke="#18445f"></path><path d="M437 132.4L297 107.4L310 182.9Z" fill="#081b28" stroke="#081b28"></path><path d="M310 182.9L173 153.9L175 289.3Z" fill="#0c2435" stroke="#0c2435"></path><path d="M377 451.1L487 500.1L515 356.7Z" fill="#2780aa" stroke="#2780aa"></path><path d="M435 552.6L487 500.1L377 451.1Z" fill="#18445f" stroke="#18445f"></path><path d="M515 356.7L593 303.3L525 276.3Z" fill="#143951" stroke="#143951"></path><path d="M525 276.3L593 303.3L525 218.9Z" fill="#00101c" stroke="#00101c"></path><path d="M614 422.7L593 303.3L515 356.7Z" fill="#143951" stroke="#143951"></path><path d="M204 108.4L173 153.9L310 182.9Z" fill="#2780aa" stroke="#2780aa"></path><path d="M175 289.3L90 356.7L168 379.7Z" fill="#1f5b7c" stroke="#1f5b7c"></path><path d="M173 153.9L125 224.9L175 289.3Z" fill="#143951" stroke="#143951"></path><path d="M297 107.4L204 108.4L310 182.9Z" fill="#081b28" stroke="#081b28"></path><path d="M318 585.6L377 451.1L282 482.1Z" fill="#0c2435" stroke="#0c2435"></path><path d="M318 585.6L435 552.6L377 451.1Z" fill="#1f5b7c" stroke="#1f5b7c"></path><path d="M125 224.9L99 278.3L175 289.3Z" fill="#25739b" stroke="#25739b"></path><path d="M168 379.7L82 513.1L224 469.1Z" fill="#081b28" stroke="#081b28"></path><path d="M99 278.3L90 356.7L175 289.3Z" fill="#143951" stroke="#143951"></path><path d="M82 513.1L238 561.6L224 469.1Z" fill="#00101c" stroke="#00101c"></path><path d="M224 469.1L238 561.6L282 482.1Z" fill="#081b28" stroke="#081b28"></path><path d="M238 561.6L318 585.6L282 482.1Z" fill="#143951" stroke="#143951"></path><path d="M593 486.1L515 356.7L487 500.1Z" fill="#18445f" stroke="#18445f"></path><path d="M593 486.1L614 422.7L515 356.7Z" fill="#081b28" stroke="#081b28"></path><path d="M623 87.4L501 65.4L525 218.9Z" fill="#00101c" stroke="#00101c"></path><path d="M525 218.9L501 65.4L437 132.4Z" fill="#0c2435" stroke="#0c2435"></path><path d="M408 0L317 0L297 107.4Z" fill="#0c2435" stroke="#0c2435"></path><path d="M297 107.4L235 0L204 108.4Z" fill="#1f5b7c" stroke="#1f5b7c"></path><path d="M593 303.3L623 201.9L525 218.9Z" fill="#25739b" stroke="#25739b"></path><path d="M664 202.9L623 201.9L593 303.3Z" fill="#143951" stroke="#143951"></path><path d="M517 597.6L593 486.1L487 500.1Z" fill="#18445f" stroke="#18445f"></path><path d="M122 0L122 110.4L204 108.4Z" fill="#00101c" stroke="#00101c"></path><path d="M204 108.4L122 110.4L173 153.9Z" fill="#102e43" stroke="#102e43"></path><path d="M173 153.9L122 110.4L125 224.9Z" fill="#18445f" stroke="#18445f"></path><path d="M0 197.9L0 305.3L99 278.3Z" fill="#102e43" stroke="#102e43"></path><path d="M408 0L297 107.4L437 132.4Z" fill="#2780aa" stroke="#2780aa"></path><path d="M501 65.4L408 0L437 132.4Z" fill="#22678b" stroke="#22678b"></path><path d="M596 0L513 0L501 65.4Z" fill="#1c4f6d" stroke="#1c4f6d"></path><path d="M721 287.3L664 202.9L593 303.3Z" fill="#1f5b7c" stroke="#1f5b7c"></path><path d="M317 0L235 0L297 107.4Z" fill="#22678b" stroke="#22678b"></path><path d="M422 675L517 597.6L435 552.6Z" fill="#1c4f6d" stroke="#1c4f6d"></path><path d="M435 552.6L517 597.6L487 500.1Z" fill="#081b28" stroke="#081b28"></path><path d="M676 479.1L614 422.7L593 486.1Z" fill="#081b28" stroke="#081b28"></path><path d="M676 479.1L681 410.7L614 422.7Z" fill="#102e43" stroke="#102e43"></path><path d="M614 422.7L681 410.7L593 303.3Z" fill="#22678b" stroke="#22678b"></path><path d="M90 356.7L82 513.1L168 379.7Z" fill="#102e43" stroke="#102e43"></path><path d="M623 87.4L525 218.9L623 201.9Z" fill="#2780aa" stroke="#2780aa"></path><path d="M501 65.4L513 0L408 0Z" fill="#00101c" stroke="#00101c"></path><path d="M664 202.9L623 87.4L623 201.9Z" fill="#0c2435" stroke="#0c2435"></path><path d="M0 197.9L99 278.3L125 224.9Z" fill="#143951" stroke="#143951"></path><path d="M99 278.3L0 305.3L90 356.7Z" fill="#00101c" stroke="#00101c"></path><path d="M90 356.7L0 424.7L82 513.1Z" fill="#18445f" stroke="#18445f"></path><path d="M603 581.6L676 479.1L593 486.1Z" fill="#25739b" stroke="#25739b"></path><path d="M783 312.3L721 287.3L681 410.7Z" fill="#0c2435" stroke="#0c2435"></path><path d="M681 410.7L721 287.3L593 303.3Z" fill="#1f5b7c" stroke="#1f5b7c"></path><path d="M664 202.9L711 100.4L623 87.4Z" fill="#22678b" stroke="#22678b"></path><path d="M517 597.6L603 581.6L593 486.1Z" fill="#1f5b7c" stroke="#1f5b7c"></path><path d="M238 561.6L304 675L318 585.6Z" fill="#081b28" stroke="#081b28"></path><path d="M318 585.6L422 675L435 552.6Z" fill="#18445f" stroke="#18445f"></path><path d="M517 597.6L537 675L603 581.6Z" fill="#18445f" stroke="#18445f"></path><path d="M202 675L304 675L238 561.6Z" fill="#1f5b7c" stroke="#1f5b7c"></path><path d="M304 675L422 675L318 585.6Z" fill="#0c2435" stroke="#0c2435"></path><path d="M122 110.4L0 197.9L125 224.9Z" fill="#081b28" stroke="#081b28"></path><path d="M0 61.4L0 197.9L122 110.4Z" fill="#22678b" stroke="#22678b"></path><path d="M82 513.1L118 595.6L238 561.6Z" fill="#143951" stroke="#143951"></path><path d="M0 305.3L0 424.7L90 356.7Z" fill="#102e43" stroke="#102e43"></path><path d="M82 513.1L0 580.6L118 595.6Z" fill="#143951" stroke="#143951"></path><path d="M235 0L122 0L204 108.4Z" fill="#081b28" stroke="#081b28"></path><path d="M720 0L596 0L623 87.4Z" fill="#1f5b7c" stroke="#1f5b7c"></path><path d="M623 87.4L596 0L501 65.4Z" fill="#25739b" stroke="#25739b"></path><path d="M118 595.6L202 675L238 561.6Z" fill="#22678b" stroke="#22678b"></path><path d="M0 424.7L0 494.1L82 513.1Z" fill="#1f5b7c" stroke="#1f5b7c"></path><path d="M118 595.6L125 675L202 675Z" fill="#102e43" stroke="#102e43"></path><path d="M422 675L537 675L517 597.6Z" fill="#1f5b7c" stroke="#1f5b7c"></path><path d="M724 601.6L770 491.1L676 479.1Z" fill="#22678b" stroke="#22678b"></path><path d="M827 196.9L711 100.4L664 202.9Z" fill="#18445f" stroke="#18445f"></path><path d="M836 363.7L783 312.3L681 410.7Z" fill="#143951" stroke="#143951"></path><path d="M721 287.3L827 196.9L664 202.9Z" fill="#18445f" stroke="#18445f"></path><path d="M122 0L0 61.4L122 110.4Z" fill="#22678b" stroke="#22678b"></path><path d="M0 675L125 675L118 595.6Z" fill="#0c2435" stroke="#0c2435"></path><path d="M0 494.1L0 580.6L82 513.1Z" fill="#25739b" stroke="#25739b"></path><path d="M724 601.6L676 479.1L603 581.6Z" fill="#0c2435" stroke="#0c2435"></path><path d="M676 479.1L770 491.1L681 410.7Z" fill="#081b28" stroke="#081b28"></path><path d="M537 675L639 675L603 581.6Z" fill="#00101c" stroke="#00101c"></path><path d="M639 675L724 601.6L603 581.6Z" fill="#102e43" stroke="#102e43"></path><path d="M122 0L0 0L0 61.4Z" fill="#22678b" stroke="#22678b"></path><path d="M766 0L720 0L711 100.4Z" fill="#2780aa" stroke="#2780aa"></path><path d="M711 100.4L720 0L623 87.4Z" fill="#1c4f6d" stroke="#1c4f6d"></path><path d="M770 491.1L836 363.7L681 410.7Z" fill="#22678b" stroke="#22678b"></path><path d="M783 312.3L827 196.9L721 287.3Z" fill="#00101c" stroke="#00101c"></path><path d="M900 365.7L836 363.7L900 485.1Z" fill="#143951" stroke="#143951"></path><path d="M900 280.3L827 196.9L783 312.3Z" fill="#1f5b7c" stroke="#1f5b7c"></path><path d="M827 196.9L819 120.4L711 100.4Z" fill="#18445f" stroke="#18445f"></path><path d="M0 580.6L0 675L118 595.6Z" fill="#2780aa" stroke="#2780aa"></path><path d="M819 120.4L766 0L711 100.4Z" fill="#143951" stroke="#143951"></path><path d="M639 675L735 675L724 601.6Z" fill="#18445f" stroke="#18445f"></path><path d="M724 601.6L822 562.6L770 491.1Z" fill="#18445f" stroke="#18445f"></path><path d="M790 675L822 562.6L724 601.6Z" fill="#081b28" stroke="#081b28"></path><path d="M836 363.7L900 280.3L783 312.3Z" fill="#143951" stroke="#143951"></path><path d="M827 196.9L900 173.9L819 120.4Z" fill="#1c4f6d" stroke="#1c4f6d"></path><path d="M819 120.4L900 59.4L766 0Z" fill="#1c4f6d" stroke="#1c4f6d"></path><path d="M900 365.7L900 280.3L836 363.7Z" fill="#0c2435" stroke="#0c2435"></path><path d="M900 485.1L836 363.7L770 491.1Z" fill="#22678b" stroke="#22678b"></path><path d="M900 280.3L900 173.9L827 196.9Z" fill="#081b28" stroke="#081b28"></path><path d="M735 675L790 675L724 601.6Z" fill="#18445f" stroke="#18445f"></path><path d="M822 562.6L900 485.1L770 491.1Z" fill="#25739b" stroke="#25739b"></path><path d="M900 569.6L900 485.1L822 562.6Z" fill="#081b28" stroke="#081b28"></path><path d="M900 173.9L900 59.4L819 120.4Z" fill="#1c4f6d" stroke="#1c4f6d"></path><path d="M900 675L900 569.6L822 562.6Z" fill="#18445f" stroke="#18445f"></path><path d="M900 59.4L900 0L766 0Z" fill="#18445f" stroke="#18445f"></path><path d="M790 675L900 675L822 562.6Z" fill="#18445f" stroke="#18445f"></path></g></svg>