<svg id="visual" viewBox="0 0 3840 2160" width="3840" height="2160" xmlns="http://www.w3.org/2000/svg" xmlns:xlink="http://www.w3.org/1999/xlink" version="1.1"><rect x="0" y="0" width="3840" height="2160" fill="#7bbbec"></rect><path d="M0 1349L91.5 1338.5C183 1328 366 1307 548.8 1319.3C731.7 1331.7 914.3 1377.3 1097.2 1385.3C1280 1393.3 1463 1363.7 1645.8 1389.5C1828.7 1415.3 2011.3 1496.7 2194.2 1534.3C2377 1572 2560 1566 2742.8 1531.3C2925.7 1496.7 3108.3 1433.3 3291.2 1442.5C3474 1451.7 3657 1533.3 3748.5 1574.2L3840 1615L3840 2161L3748.5 2161C3657 2161 3474 2161 3291.2 2161C3108.3 2161 2925.7 2161 2742.8 2161C2560 2161 2377 2161 2194.2 2161C2011.3 2161 1828.7 2161 1645.8 2161C1463 2161 1280 2161 1097.2 2161C914.3 2161 731.7 2161 548.8 2161C366 2161 183 2161 91.5 2161L0 2161Z" fill="#89fa69"></path><path d="M0 1522L91.5 1555.8C183 1589.7 366 1657.3 548.8 1675.3C731.7 1693.3 914.3 1661.7 1097.2 1642.8C1280 1624 1463 1618 1645.8 1629.3C1828.7 1640.7 2011.3 1669.3 2194.2 1646.3C2377 1623.3 2560 1548.7 2742.8 1517.7C2925.7 1486.7 3108.3 1499.3 3291.2 1495.8C3474 1492.3 3657 1472.7 3748.5 1462.8L3840 1453L3840 2161L3748.5 2161C3657 2161 3474 2161 3291.2 2161C3108.3 2161 2925.7 2161 2742.8 2161C2560 2161 2377 2161 2194.2 2161C2011.3 2161 1828.7 2161 1645.8 2161C1463 2161 1280 2161 1097.2 2161C914.3 2161 731.7 2161 548.8 2161C366 2161 183 2161 91.5 2161L0 2161Z" fill="#60e173"></path><path d="M0 1806L91.5 1775.5C183 1745 366 1684 548.8 1690.2C731.7 1696.3 914.3 1769.7 1097.2 1763.8C1280 1758 1463 1673 1645.8 1643.2C1828.7 1613.3 2011.3 1638.7 2194.2 1677.5C2377 1716.3 2560 1768.7 2742.8 1789C2925.7 1809.3 3108.3 1797.7 3291.2 1789C3474 1780.3 3657 1774.7 3748.5 1771.8L3840 1769L3840 2161L3748.5 2161C3657 2161 3474 2161 3291.2 2161C3108.3 2161 2925.7 2161 2742.8 2161C2560 2161 2377 2161 2194.2 2161C2011.3 2161 1828.7 2161 1645.8 2161C1463 2161 1280 2161 1097.2 2161C914.3 2161 731.7 2161 548.8 2161C366 2161 183 2161 91.5 2161L0 2161Z" fill="#3bc878"></path><path d="M0 1878L91.5 1889.7C183 1901.3 366 1924.7 548.8 1909C731.7 1893.3 914.3 1838.7 1097.2 1803.3C1280 1768 1463 1752 1645.8 1780.2C1828.7 1808.3 2011.3 1880.7 2194.2 1906.8C2377 1933 2560 1913 2742.8 1900.5C2925.7 1888 3108.3 1883 3291.2 1866.2C3474 1849.3 3657 1820.7 3748.5 1806.3L3840 1792L3840 2161L3748.5 2161C3657 2161 3474 2161 3291.2 2161C3108.3 2161 2925.7 2161 2742.8 2161C2560 2161 2377 2161 2194.2 2161C2011.3 2161 1828.7 2161 1645.8 2161C1463 2161 1280 2161 1097.2 2161C914.3 2161 731.7 2161 548.8 2161C366 2161 183 2161 91.5 2161L0 2161Z" fill="#19ae78"></path><path d="M0 2020L91.5 2020.2C183 2020.3 366 2020.7 548.8 2027.5C731.7 2034.3 914.3 2047.7 1097.2 2047.2C1280 2046.7 1463 2032.3 1645.8 2022C1828.7 2011.7 2011.3 2005.3 2194.2 2004.7C2377 2004 2560 2009 2742.8 2011.8C2925.7 2014.7 3108.3 2015.3 3291.2 1995.3C3474 1975.3 3657 1934.7 3748.5 1914.3L3840 1894L3840 2161L3748.5 2161C3657 2161 3474 2161 3291.2 2161C3108.3 2161 2925.7 2161 2742.8 2161C2560 2161 2377 2161 2194.2 2161C2011.3 2161 1828.7 2161 1645.8 2161C1463 2161 1280 2161 1097.2 2161C914.3 2161 731.7 2161 548.8 2161C366 2161 183 2161 91.5 2161L0 2161Z" fill="#009473"></path></svg>