<svg id="visual" viewBox="0 0 900 600" width="900" height="600" xmlns="http://www.w3.org/2000/svg" xmlns:xlink="http://www.w3.org/1999/xlink" version="1.1"><g stroke-width="1" stroke-linejoin="bevel"><path d="M480 333L384 418L505 420Z" fill="#dbe3e6" stroke="#dbe3e6"></path><path d="M480 333L375 331L384 418Z" fill="#b5bcc1" stroke="#b5bcc1"></path><path d="M384 418L401 481L505 420Z" fill="#dbe3e6" stroke="#dbe3e6"></path><path d="M401 481L498 495L505 420Z" fill="#bbc2c6" stroke="#bbc2c6"></path><path d="M375 331L315 395L384 418Z" fill="#cbd2d6" stroke="#cbd2d6"></path><path d="M384 418L312 483L401 481Z" fill="#d6dde1" stroke="#d6dde1"></path><path d="M315 395L312 483L384 418Z" fill="#a5acb1" stroke="#a5acb1"></path><path d="M485 600L583 538L498 495Z" fill="#b0b7bb" stroke="#b0b7bb"></path><path d="M505 420L590 296L480 333Z" fill="#d6dde1" stroke="#d6dde1"></path><path d="M480 333L434 210L375 331Z" fill="#aab1b6" stroke="#aab1b6"></path><path d="M616 417L590 296L505 420Z" fill="#b5bcc1" stroke="#b5bcc1"></path><path d="M498 495L616 417L505 420Z" fill="#d0d8db" stroke="#d0d8db"></path><path d="M301 184L281 328L375 331Z" fill="#cbd2d6" stroke="#cbd2d6"></path><path d="M375 331L281 328L315 395Z" fill="#c0c7cb" stroke="#c0c7cb"></path><path d="M315 395L212 473L312 483Z" fill="#aab1b6" stroke="#aab1b6"></path><path d="M590 296L434 210L480 333Z" fill="#dbe3e6" stroke="#dbe3e6"></path><path d="M419 600L498 495L401 481Z" fill="#d0d8db" stroke="#d0d8db"></path><path d="M498 495L583 538L616 417Z" fill="#cbd2d6" stroke="#cbd2d6"></path><path d="M298 600L419 600L401 481Z" fill="#c0c7cb" stroke="#c0c7cb"></path><path d="M419 600L485 600L498 495Z" fill="#b0b7bb" stroke="#b0b7bb"></path><path d="M682 514L661 370L616 417Z" fill="#b0b7bb" stroke="#b0b7bb"></path><path d="M616 417L661 370L590 296Z" fill="#dbe3e6" stroke="#dbe3e6"></path><path d="M590 296L510 161L434 210Z" fill="#dbe3e6" stroke="#dbe3e6"></path><path d="M583 168L510 161L590 296Z" fill="#b5bcc1" stroke="#b5bcc1"></path><path d="M661 370L671 306L590 296Z" fill="#b0b7bb" stroke="#b0b7bb"></path><path d="M192 362L212 473L315 395Z" fill="#d6dde1" stroke="#d6dde1"></path><path d="M312 483L298 600L401 481Z" fill="#dbe3e6" stroke="#dbe3e6"></path><path d="M414 60L301 184L434 210Z" fill="#bbc2c6" stroke="#bbc2c6"></path><path d="M434 210L301 184L375 331Z" fill="#a5acb1" stroke="#a5acb1"></path><path d="M281 328L192 362L315 395Z" fill="#a5acb1" stroke="#a5acb1"></path><path d="M207 267L192 362L281 328Z" fill="#c0c7cb" stroke="#c0c7cb"></path><path d="M212 473L298 600L312 483Z" fill="#b5bcc1" stroke="#b5bcc1"></path><path d="M301 184L238 232L281 328Z" fill="#b0b7bb" stroke="#b0b7bb"></path><path d="M685 212L583 168L590 296Z" fill="#aab1b6" stroke="#aab1b6"></path><path d="M625 600L682 514L583 538Z" fill="#d0d8db" stroke="#d0d8db"></path><path d="M583 538L682 514L616 417Z" fill="#c5cdd0" stroke="#c5cdd0"></path><path d="M661 370L809 422L671 306Z" fill="#b5bcc1" stroke="#b5bcc1"></path><path d="M238 232L207 267L281 328Z" fill="#bbc2c6" stroke="#bbc2c6"></path><path d="M485 600L625 600L583 538Z" fill="#aab1b6" stroke="#aab1b6"></path><path d="M583 168L518 120L510 161Z" fill="#aab1b6" stroke="#aab1b6"></path><path d="M510 161L414 60L434 210Z" fill="#a5acb1" stroke="#a5acb1"></path><path d="M671 306L685 212L590 296Z" fill="#b0b7bb" stroke="#b0b7bb"></path><path d="M583 168L617 68L518 120Z" fill="#b5bcc1" stroke="#b5bcc1"></path><path d="M825 273L685 212L671 306Z" fill="#c0c7cb" stroke="#c0c7cb"></path><path d="M116 330L131 380L192 362Z" fill="#b0b7bb" stroke="#b0b7bb"></path><path d="M192 362L131 380L212 473Z" fill="#cbd2d6" stroke="#cbd2d6"></path><path d="M212 473L196 600L298 600Z" fill="#bbc2c6" stroke="#bbc2c6"></path><path d="M129 508L196 600L212 473Z" fill="#c0c7cb" stroke="#c0c7cb"></path><path d="M625 600L698 600L682 514Z" fill="#aab1b6" stroke="#aab1b6"></path><path d="M682 514L809 422L661 370Z" fill="#b5bcc1" stroke="#b5bcc1"></path><path d="M432 0L414 60L504 0Z" fill="#dbe3e6" stroke="#dbe3e6"></path><path d="M518 120L414 60L510 161Z" fill="#b5bcc1" stroke="#b5bcc1"></path><path d="M301 184L280 99L238 232Z" fill="#b5bcc1" stroke="#b5bcc1"></path><path d="M207 267L116 330L192 362Z" fill="#dbe3e6" stroke="#dbe3e6"></path><path d="M131 380L129 508L212 473Z" fill="#a5acb1" stroke="#a5acb1"></path><path d="M65 184L116 330L207 267Z" fill="#cbd2d6" stroke="#cbd2d6"></path><path d="M129 119L207 267L238 232Z" fill="#c0c7cb" stroke="#c0c7cb"></path><path d="M414 60L280 99L301 184Z" fill="#b0b7bb" stroke="#b0b7bb"></path><path d="M0 514L129 508L131 380Z" fill="#d6dde1" stroke="#d6dde1"></path><path d="M707 90L617 68L583 168Z" fill="#d6dde1" stroke="#d6dde1"></path><path d="M789 518L809 422L682 514Z" fill="#dbe3e6" stroke="#dbe3e6"></path><path d="M685 212L707 90L583 168Z" fill="#d0d8db" stroke="#d0d8db"></path><path d="M698 600L789 518L682 514Z" fill="#b5bcc1" stroke="#b5bcc1"></path><path d="M504 0L414 60L518 120Z" fill="#aab1b6" stroke="#aab1b6"></path><path d="M414 60L291 0L280 99Z" fill="#cbd2d6" stroke="#cbd2d6"></path><path d="M291 0L214 73L280 99Z" fill="#aab1b6" stroke="#aab1b6"></path><path d="M280 99L214 73L238 232Z" fill="#d0d8db" stroke="#d0d8db"></path><path d="M0 514L113 600L129 508Z" fill="#b5bcc1" stroke="#b5bcc1"></path><path d="M129 508L113 600L196 600Z" fill="#c0c7cb" stroke="#c0c7cb"></path><path d="M617 68L504 0L518 120Z" fill="#b5bcc1" stroke="#b5bcc1"></path><path d="M809 422L825 273L671 306Z" fill="#dbe3e6" stroke="#dbe3e6"></path><path d="M823 176L707 90L685 212Z" fill="#b0b7bb" stroke="#b0b7bb"></path><path d="M617 68L632 0L504 0Z" fill="#d6dde1" stroke="#d6dde1"></path><path d="M698 600L789 600L789 518Z" fill="#cbd2d6" stroke="#cbd2d6"></path><path d="M900 462L900 362L809 422Z" fill="#a5acb1" stroke="#a5acb1"></path><path d="M214 73L129 119L238 232Z" fill="#dbe3e6" stroke="#dbe3e6"></path><path d="M432 0L291 0L414 60Z" fill="#aab1b6" stroke="#aab1b6"></path><path d="M214 73L199 0L129 119Z" fill="#cbd2d6" stroke="#cbd2d6"></path><path d="M129 119L65 184L207 267Z" fill="#c5cdd0" stroke="#c5cdd0"></path><path d="M116 330L0 361L131 380Z" fill="#bbc2c6" stroke="#bbc2c6"></path><path d="M698 0L632 0L617 68Z" fill="#bbc2c6" stroke="#bbc2c6"></path><path d="M825 273L823 176L685 212Z" fill="#b0b7bb" stroke="#b0b7bb"></path><path d="M707 90L698 0L617 68Z" fill="#c0c7cb" stroke="#c0c7cb"></path><path d="M0 290L0 361L116 330Z" fill="#b0b7bb" stroke="#b0b7bb"></path><path d="M900 462L809 422L789 518Z" fill="#d0d8db" stroke="#d0d8db"></path><path d="M809 422L900 362L825 273Z" fill="#d6dde1" stroke="#d6dde1"></path><path d="M825 273L900 177L823 176Z" fill="#bbc2c6" stroke="#bbc2c6"></path><path d="M65 184L0 290L116 330Z" fill="#aab1b6" stroke="#aab1b6"></path><path d="M900 600L900 462L789 518Z" fill="#b0b7bb" stroke="#b0b7bb"></path><path d="M291 0L199 0L214 73Z" fill="#cbd2d6" stroke="#cbd2d6"></path><path d="M0 101L0 197L65 184Z" fill="#bbc2c6" stroke="#bbc2c6"></path><path d="M0 361L0 514L131 380Z" fill="#cbd2d6" stroke="#cbd2d6"></path><path d="M770 0L698 0L707 90Z" fill="#c0c7cb" stroke="#c0c7cb"></path><path d="M900 362L900 289L825 273Z" fill="#d6dde1" stroke="#d6dde1"></path><path d="M900 177L832 114L823 176Z" fill="#b5bcc1" stroke="#b5bcc1"></path><path d="M823 176L832 114L707 90Z" fill="#b5bcc1" stroke="#b5bcc1"></path><path d="M0 101L65 184L129 119Z" fill="#a5acb1" stroke="#a5acb1"></path><path d="M65 184L0 197L0 290Z" fill="#aab1b6" stroke="#aab1b6"></path><path d="M0 514L0 600L113 600Z" fill="#dbe3e6" stroke="#dbe3e6"></path><path d="M789 600L900 600L789 518Z" fill="#aab1b6" stroke="#aab1b6"></path><path d="M900 289L900 177L825 273Z" fill="#b5bcc1" stroke="#b5bcc1"></path><path d="M900 62L770 0L832 114Z" fill="#b5bcc1" stroke="#b5bcc1"></path><path d="M832 114L770 0L707 90Z" fill="#c0c7cb" stroke="#c0c7cb"></path><path d="M69 0L0 101L129 119Z" fill="#d0d8db" stroke="#d0d8db"></path><path d="M199 0L69 0L129 119Z" fill="#d0d8db" stroke="#d0d8db"></path><path d="M900 177L900 62L832 114Z" fill="#bbc2c6" stroke="#bbc2c6"></path><path d="M69 0L0 0L0 101Z" fill="#aab1b6" stroke="#aab1b6"></path><path d="M900 62L900 0L770 0Z" fill="#b0b7bb" stroke="#b0b7bb"></path></g></svg>