<?xml version="1.0" encoding="utf-8"?>
<!-- Generator: Adobe Illustrator 19.2.1, SVG Export Plug-In . SVG Version: 6.00 Build 0)  -->
<svg version="1.1" id="layer" xmlns="http://www.w3.org/2000/svg" xmlns:xlink="http://www.w3.org/1999/xlink" x="0px" y="0px"
	 viewBox="0 0 652 652" style="enable-background:new 0 0 652 652;" xml:space="preserve">
<style type="text/css">
	.st0{fill:#E3403D;}
	.st1{fill:#1391D2;}
	.st2{fill:#FC9E15;}
</style>
<path class="st0" d="M547.1,312.7c0,13,7.6,24.3,21.5,24.3c13.9,0,21.5-11.3,21.5-24.3s-7.6-24.3-21.5-24.3
	C554.7,288.4,547.1,299.7,547.1,312.7 M520.3,312.7c-1.3-26.7,19.4-49.3,46-50.6c15.7-0.7,30.8,6.2,40.5,18.7
	c11.9,16.9,13.4,39,4,57.4c-12.9,23.4-42.3,31.9-65.6,19C529.2,348.3,519.5,331.1,520.3,312.7 M489,264.3v12.9h-0.4
	c-1-1.4-2.1-2.6-3.4-3.6c-19.1-16.5-51.8-13.2-64.2,9.9c-5.9,12.5-7.7,26.5-5.4,40.1c1.7,12.2,6.2,25.1,16.9,32.2
	c12.2,7.8,27.3,9.3,40.8,4.2c4.8-1.9,9.1-5.1,12.2-9.2h0.3v9.3c0.4,6.2-1.6,12.3-5.8,16.9c-8.5,8.8-24.8,8.2-35.8,5.3
	c-6.1-1.5-11.9-4.1-17.1-7.7l-14.4,21.2c6.9,5.2,14.7,9,23,11.2c21.1,5.6,50.3,5.5,66.5-11.3c9.2-9.4,12.9-23.3,12.9-41.5v-89.8
	L489,264.3L489,264.3z M481.6,330.4c-8.3,8.8-22.1,9.2-30.8,0.9c-0.3-0.3-0.6-0.6-0.9-0.9c-7.8-10.5-7.8-24.8,0-35.3
	c8.3-8.8,22.1-9.2,30.8-0.9c0.3,0.3,0.6,0.6,0.9,0.9C489.4,305.5,489.4,319.9,481.6,330.4C477.8,334.9,485.4,325.9,481.6,330.4
	L481.6,330.4z"/>
<path class="st1" d="M99.2,288.1H69.9v32.2c0,5.5,0.5,12.5,5.6,15.6c5.4,2.4,11.3,3,17.1,1.7c2.3-0.2,4.6-0.9,6.5-2.3v24.7
	c-3.7,1.2-7.5,1.9-11.4,2.4c-20.9,2.1-50.2-1.5-50.2-28.5v-45.9H17v-23.7h20.5V236h32.4v28.4h29.2L99.2,288.1L99.2,288.1z
	 M182.1,264.4h29.2v96.4h-29.2L182.1,264.4L182.1,264.4z M180.9,239.1c-0.2-8.7,6.7-15.9,15.4-16c8.7-0.2,15.9,6.7,16,15.4
	c0,0.2,0,0.4,0,0.6c-0.2,8.7-7.4,15.6-16,15.4C187.9,254.3,181.1,247.5,180.9,239.1 M107.1,264.4h30v15.8h0.3
	c2.5-5.4,6.4-10,11.3-13.4c8.1-4.4,17.4-5.6,26.4-3.5v27.1c-6.1-1.6-18.8-4.2-27.7,1.2c-5.6,3.4-10.2,7.6-10.2,29v40.2h-30
	L107.1,264.4L107.1,264.4L107.1,264.4z"/>
<path class="st2" d="M215.3,264.4h32l24.3,65.6h0.4l22.5-65.6h29.8l-37.9,96.4H255 M352.2,322.4c-5.9,3.6-9.9,10.8-4.5,16.3
	c5.3,5.4,14.8,4.9,21.4,2.6c7.4-2,12.7-8.7,12.9-16.4v-6C382.2,319,359.7,317.7,352.2,322.4L352.2,322.4L352.2,322.4z M382.1,349
	h-0.5c-3.2,4.8-7.8,8.6-13.1,10.9c-21,8.6-51.5-0.1-51.5-26.4c0-27.4,29.8-33,51.7-33.6c4.8-0.1,9.2-0.2,13.3-0.2
	c0.2-4.8-1.9-9.5-5.6-12.5c-7.8-5.6-18.2-6.3-26.7-1.6c-4.1,2.1-7.7,4.9-10.8,8.4L323,277.7c5.6-5.2,12.2-9.1,19.4-11.6
	c13.3-4.7,27.8-5.3,41.4-1.6c12.1,3.6,21.1,13.7,23.2,26.1c1.3,7,2,14.1,1.8,21.2v48.9h-26.9L382.1,349L382.1,349L382.1,349z"/>
</svg>
