<svg xmlns="http://www.w3.org/2000/svg" enable-background="new 0 0 124 124" viewBox="0 0 124 124"><path fill="#7ac356" d="M34.6 65.9c.9 5.1.8 5.2-3.8 5.2-3.5 0-7 .1-10.5 0-1.9 0-2.8.6-2.8 2.7.1 7.5-.5 6 5.9 6.1 3.5.1 7 0 10.4 0 1.4 4.6 1 5.2-3.3 5.2-3.4 0-6.8.1-10.2 0-1.9 0-2.8.6-2.8 2.7.1 7.6-.5 6 5.9 6.2 3.5.1 7 0 10.5.1.2 0 .4.1.8.2 0 1.5 0 3.1 0 5.1-1.4 0-2.9 0-4.3 0-5.4 0-10.9 0-16.3 0-1.6 0-2.5-.5-2.5-2.3 0-9.6 0-19.2.1-28.8 0-.8 1.2-2.1 1.8-2.2C20.5 65.8 27.5 65.9 34.6 65.9zM58.7 97.2c-7.6 3.8-13.8 2.8-18.1-2.6-3.5-4.3-3.6-10.9-.2-15.4 4.1-5.4 10.8-6.6 17.9-4 2.2-.3 4.4-.6 7-.9 0 4.9 0 9.2 0 13.5 0 2.5.1 5 0 7.5-.1 1.2-.6 3.3-1.1 3.3C62.2 98.9 59.8 100.1 58.7 97.2zM51.4 79c-4.2 0-7.8 3.6-7.7 7.8 0 4.2 3.6 7.7 7.9 7.6 4.1-.1 7.5-3.5 7.6-7.6C59.1 82.7 55.5 79 51.4 79z"/><path fill="#fff" d="M42.7 23.3c1.7 0 3 0 4.7 0 0 3.8 0 7.5 0 10.7 3.8-.7 7.4-1.8 11-1.8 3.9 0 7.1 2.3 9.2 5.8 3 5.1 1.9 12-2.5 16.3-4.7 4.5-10.9 4.7-17.2.6-.8 2.5-.8 2.5-5.3 1.9C42.7 45.8 42.7 34.7 42.7 23.3zM55.9 36.6c-4.5 0-8.3 3.9-8.3 8.4 0 4.5 3.9 8.3 8.4 8.3 4.5 0 8.3-3.9 8.2-8.5C64.2 40.3 60.5 36.6 55.9 36.6zM33.4 23.4c1.6 0 3 0 4.7 0 0 11.1 0 22.2 0 33.5-1.9-.2-4.5 1.7-5.2-2.2-.4.2-.7.3-1 .5-9 5.9-19.7 1-20.5-9.7-.6-7.2-.1-14.5-.1-22 1.6 0 3.2 0 5.2 0 .1.9.2 2 .2 3 0 5.9-.2 11.8.1 17.7.3 7.3 6.9 11 12.6 7.3 3.1-2 3.9-5.1 4-8.6 0-5.5 0-11.1 0-16.6C33.2 25.4 33.3 24.5 33.4 23.4z"/><path fill="#7ac356" d="M111.8,81.8c-3.5,0.3-5.8,0.7-8-1.8c-1.6-1.9-4.3-2.1-6.7-0.9c-0.8,0.4-1.6,1.3-1.7,2c-0.1,0.5,0.9,1.6,1.5,1.8
	c1.8,0.7,3.7,1.1,5.6,1.6c2.1,0.6,4.4,0.9,6.4,1.8c3.9,2,4.6,6.5,1.6,9.8c-4.5,5-16.1,4.7-20.2-0.6c-0.8-1-1.2-2.3-1.9-3.8
	c3.1-0.3,5.5-1,7.6,1.6c1.6,2,5.9,2.3,8.2,1.1c0.7-0.4,1.6-1.4,1.6-2.1c0-0.7-1-1.7-1.7-1.9c-2-0.6-4.1-0.9-6.2-1.4
	c-1.7-0.4-3.4-0.8-5-1.6c-4.7-2.3-5.4-7.4-1.6-11c4.5-4.1,14.1-3.8,18.1,0.8C110.3,78.3,110.8,79.9,111.8,81.8z"/><path fill="#fff" d="M96.4,46.5c-6.5,0-12.9,0-19.3,0c1.4,7.4,8.3,8.8,15,3.2c1,0.8,2,1.6,3.1,2.3c-2.3,4.9-9.3,7-15.6,4.7
	c-6.3-2.3-9.6-8.9-7.7-15.6c1.7-6.3,8.6-10.4,15.3-9.1C93.4,33.2,97.1,38.8,96.4,46.5z M91.1,42.4c-0.8-4-3.7-6.1-7.6-5.9
	c-3.5,0.2-6,2.5-6.3,5.9C81.8,42.4,86.4,42.4,91.1,42.4z"/><path fill="#7ac356" d="M68.5,79.4c0-1.5,0-2.9,0-4.2c1.3-1.5,4.1,0.8,4.5-2.1c0.2-1.7,0-3.4,0-5.4c2.1,0,3.8,0,5.7,0
	c0.3,2.3-0.2,5.1,1,6.4c1.1,1.1,4,0.5,6.2,0.7c0,1.5,0,2.9,0,4.6c-1.4,0.1-2.9,0.2-4.3,0.2c-1.9-0.1-2.8,0.6-2.7,2.7
	c0.1,2.5,0,5,0,7.5c0,3.4,0.5,3.8,3.9,3.9c0.9,0,1.9,0.1,2.8,0.1c1.1,5,1,5.2-3.9,5c-2.2-0.1-4.6-0.2-6.3-1.3
	c-1.3-0.8-2.1-3.2-2.3-4.9c-0.4-3.2-0.2-6.4-0.1-9.6c0.1-2.3-0.3-3.8-3.1-3.5C69.6,79.7,69.1,79.5,68.5,79.4z"/><path fill="#fff" d="M112.4,31.6c0,2.3,0,3.7,0,5.4c-0.5,0.1-1.1,0.2-1.6,0.3c-4.1,0.3-5.7,1.9-5.8,6.1c-0.1,4.5,0,9,0,13.7c-1.8,0-3.3,0-4.9,0
	c0-8.1,0-16.1,0-24.3c1.9,0.1,4.2-1.7,5.2,1.2C107.4,33.1,109.7,32.4,112.4,31.6z"/></svg>